<?xml version="1.0" encoding="UTF-8" standalone="no"?>
<!-- Created with Inkscape (http://www.inkscape.org/) -->

<svg
   xmlns:dc="http://purl.org/dc/elements/1.1/"
   xmlns:cc="http://creativecommons.org/ns#"
   xmlns:rdf="http://www.w3.org/1999/02/22-rdf-syntax-ns#"
   xmlns:svg="http://www.w3.org/2000/svg"
   xmlns="http://www.w3.org/2000/svg"
   xmlns:xlink="http://www.w3.org/1999/xlink"
   xmlns:sodipodi="http://sodipodi.sourceforge.net/DTD/sodipodi-0.dtd"
   xmlns:inkscape="http://www.inkscape.org/namespaces/inkscape"
   width="30"
   height="30"
   id="svg2"
   version="1.1"
   inkscape:version="0.47 r22583"
   sodipodi:docname="mushtopus.svg"
   inkscape:export-filename="/Users/olly/projects/DynaJS/web/gfx/monsters/mushtopus.png"
   inkscape:export-xdpi="150"
   inkscape:export-ydpi="150">
  <defs
     id="defs4">
    <linearGradient
       id="linearGradient5774">
      <stop
         style="stop-color:#ffb98b;stop-opacity:1;"
         offset="0"
         id="stop5776" />
      <stop
         style="stop-color:#ff7f2a;stop-opacity:1;"
         offset="1"
         id="stop5778" />
    </linearGradient>
    <linearGradient
       inkscape:collect="always"
       id="linearGradient5680">
      <stop
         style="stop-color:#e6e6e6;stop-opacity:1;"
         offset="0"
         id="stop5682" />
      <stop
         style="stop-color:#e6e6e6;stop-opacity:0;"
         offset="1"
         id="stop5684" />
    </linearGradient>
    <linearGradient
       id="linearGradient5454">
      <stop
         style="stop-color:#ffffff;stop-opacity:1;"
         offset="0"
         id="stop5456" />
      <stop
         style="stop-color:#000000;stop-opacity:0.62601626;"
         offset="1"
         id="stop5458" />
    </linearGradient>
    <linearGradient
       id="linearGradient5256">
      <stop
         style="stop-color:#999999;stop-opacity:1;"
         offset="0"
         id="stop5258" />
      <stop
         style="stop-color:#b9b9b9;stop-opacity:1;"
         offset="1"
         id="stop5260" />
    </linearGradient>
    <linearGradient
       id="linearGradient5225">
      <stop
         style="stop-color:#666666;stop-opacity:1;"
         offset="0"
         id="stop5227" />
      <stop
         style="stop-color:#707070;stop-opacity:1;"
         offset="1"
         id="stop5229" />
    </linearGradient>
    <linearGradient
       id="linearGradient4404">
      <stop
         style="stop-color:#803300;stop-opacity:1;"
         offset="0"
         id="stop4406" />
      <stop
         style="stop-color:#803300;stop-opacity:0;"
         offset="1"
         id="stop4408" />
    </linearGradient>
    <linearGradient
       id="linearGradient4388">
      <stop
         style="stop-color:#d38d5f;stop-opacity:1;"
         offset="0"
         id="stop4390" />
      <stop
         style="stop-color:#dca580;stop-opacity:1;"
         offset="1"
         id="stop4392" />
    </linearGradient>
    <linearGradient
       id="linearGradient4319">
      <stop
         id="stop4321"
         offset="0"
         style="stop-color:#572300;stop-opacity:1;" />
      <stop
         id="stop4323"
         offset="1"
         style="stop-color:#5f2600;stop-opacity:0;" />
    </linearGradient>
    <linearGradient
       inkscape:collect="always"
       id="linearGradient4113">
      <stop
         style="stop-color:#ffccaa;stop-opacity:1;"
         offset="0"
         id="stop4115" />
      <stop
         style="stop-color:#ffccaa;stop-opacity:0;"
         offset="1"
         id="stop4117" />
    </linearGradient>
    <linearGradient
       id="linearGradient3905">
      <stop
         id="stop3907"
         offset="0"
         style="stop-color:#07121a;stop-opacity:1;" />
      <stop
         id="stop3909"
         offset="1"
         style="stop-color:#1c3865;stop-opacity:1;" />
    </linearGradient>
    <linearGradient
       id="linearGradient3789">
      <stop
         style="stop-color:#ffffff;stop-opacity:1;"
         offset="0"
         id="stop3791" />
      <stop
         style="stop-color:#ffffff;stop-opacity:0.27642277;"
         offset="1"
         id="stop3793" />
    </linearGradient>
    <linearGradient
       id="linearGradient3755">
      <stop
         id="stop3757"
         offset="0"
         style="stop-color:#000000;stop-opacity:1;" />
      <stop
         id="stop3759"
         offset="1"
         style="stop-color:#939393;stop-opacity:1;" />
    </linearGradient>
    <linearGradient
       id="linearGradient3737">
      <stop
         style="stop-color:#c9753c;stop-opacity:1;"
         offset="0"
         id="stop3739" />
      <stop
         style="stop-color:#482914;stop-opacity:1;"
         offset="1"
         id="stop3741" />
    </linearGradient>
    <linearGradient
       id="linearGradient3705">
      <stop
         style="stop-color:#1f1f1f;stop-opacity:1;"
         offset="0"
         id="stop3707" />
      <stop
         style="stop-color:#6a6a6a;stop-opacity:1;"
         offset="1"
         id="stop3709" />
    </linearGradient>
    <linearGradient
       id="linearGradient3697">
      <stop
         style="stop-color:#a05a2c;stop-opacity:1;"
         offset="0"
         id="stop3699" />
      <stop
         style="stop-color:#553017;stop-opacity:1;"
         offset="1"
         id="stop3701" />
    </linearGradient>
    <linearGradient
       id="linearGradient3681">
      <stop
         style="stop-color:#e9c6af;stop-opacity:1;"
         offset="0"
         id="stop3683" />
      <stop
         style="stop-color:#dea786;stop-opacity:1;"
         offset="1"
         id="stop3685" />
    </linearGradient>
    <linearGradient
       id="linearGradient3658">
      <stop
         style="stop-color:#ffffff;stop-opacity:1;"
         offset="0"
         id="stop3660" />
      <stop
         style="stop-color:#767676;stop-opacity:1;"
         offset="1"
         id="stop3662" />
    </linearGradient>
    <inkscape:perspective
       sodipodi:type="inkscape:persp3d"
       inkscape:vp_x="0 : 526.18109 : 1"
       inkscape:vp_y="0 : 1000 : 0"
       inkscape:vp_z="744.09448 : 526.18109 : 1"
       inkscape:persp3d-origin="372.04724 : 350.78739 : 1"
       id="perspective10" />
    <inkscape:perspective
       id="perspective3617"
       inkscape:persp3d-origin="0.5 : 0.33333333 : 1"
       inkscape:vp_z="1 : 0.5 : 1"
       inkscape:vp_y="0 : 1000 : 0"
       inkscape:vp_x="0 : 0.5 : 1"
       sodipodi:type="inkscape:persp3d" />
    <inkscape:perspective
       id="perspective3644"
       inkscape:persp3d-origin="0.5 : 0.33333333 : 1"
       inkscape:vp_z="1 : 0.5 : 1"
       inkscape:vp_y="0 : 1000 : 0"
       inkscape:vp_x="0 : 0.5 : 1"
       sodipodi:type="inkscape:persp3d" />
    <inkscape:perspective
       id="perspective3843"
       inkscape:persp3d-origin="0.5 : 0.33333333 : 1"
       inkscape:vp_z="1 : 0.5 : 1"
       inkscape:vp_y="0 : 1000 : 0"
       inkscape:vp_x="0 : 0.5 : 1"
       sodipodi:type="inkscape:persp3d" />
    <inkscape:perspective
       id="perspective4090"
       inkscape:persp3d-origin="0.5 : 0.33333333 : 1"
       inkscape:vp_z="1 : 0.5 : 1"
       inkscape:vp_y="0 : 1000 : 0"
       inkscape:vp_x="0 : 0.5 : 1"
       sodipodi:type="inkscape:persp3d" />
    <radialGradient
       inkscape:collect="always"
       xlink:href="#linearGradient4113"
       id="radialGradient4251"
       gradientUnits="userSpaceOnUse"
       gradientTransform="matrix(1.1176259,1.8702509e-6,-3.8537016e-7,0.22949372,-45.64169,1049.4494)"
       cx="16.76222"
       cy="6.3877783"
       fx="16.76222"
       fy="6.3877783"
       r="4.829792" />
    <radialGradient
       inkscape:collect="always"
       xlink:href="#linearGradient4113"
       id="radialGradient4254"
       gradientUnits="userSpaceOnUse"
       gradientTransform="matrix(1.1176259,1.8702509e-6,-3.8537016e-7,0.22949372,-37.715658,1048.6992)"
       cx="16.76222"
       cy="6.3877783"
       fx="16.76222"
       fy="6.3877783"
       r="4.829792" />
    <radialGradient
       inkscape:collect="always"
       xlink:href="#linearGradient4113"
       id="radialGradient4260"
       gradientUnits="userSpaceOnUse"
       gradientTransform="matrix(1.1176259,1.8702509e-6,-3.8537016e-7,0.22949372,-41.576183,1047.6419)"
       cx="16.76222"
       cy="6.3877783"
       fx="16.76222"
       fy="6.3877783"
       r="4.829792" />
    <linearGradient
       inkscape:collect="always"
       xlink:href="#linearGradient5680"
       id="linearGradient5688"
       x1="10.513392"
       y1="1030.9604"
       x2="11.964285"
       y2="1031.9203"
       gradientUnits="userSpaceOnUse" />
    <linearGradient
       inkscape:collect="always"
       xlink:href="#linearGradient5680"
       id="linearGradient5703"
       gradientUnits="userSpaceOnUse"
       x1="10.513392"
       y1="1030.9604"
       x2="11.964285"
       y2="1031.9203" />
    <linearGradient
       inkscape:collect="always"
       xlink:href="#linearGradient5680"
       id="linearGradient5753"
       gradientUnits="userSpaceOnUse"
       x1="10.513392"
       y1="1030.9604"
       x2="11.964285"
       y2="1031.9203" />
    <radialGradient
       inkscape:collect="always"
       xlink:href="#linearGradient5774"
       id="radialGradient5780"
       cx="14.776838"
       cy="10.239299"
       fx="14.776838"
       fy="10.239299"
       r="7.3883929"
       gradientTransform="matrix(1,0,0,1.3021148,0,-3.8775897)"
       gradientUnits="userSpaceOnUse" />
    <radialGradient
       inkscape:collect="always"
       xlink:href="#linearGradient5774"
       id="radialGradient5788"
       cx="11.790308"
       cy="1046.5591"
       fx="11.790308"
       fy="1046.5591"
       r="9.2539558"
       gradientTransform="matrix(1,0,0,0.55966136,0,460.8404)"
       gradientUnits="userSpaceOnUse" />
  </defs>
  <sodipodi:namedview
     id="base"
     pagecolor="#ffffff"
     bordercolor="#666666"
     borderopacity="1.0"
     inkscape:pageopacity="0.0"
     inkscape:pageshadow="2"
     inkscape:zoom="11.2"
     inkscape:cx="20.343853"
     inkscape:cy="19.130961"
     inkscape:document-units="px"
     inkscape:current-layer="layer1"
     showgrid="false"
     inkscape:window-width="1920"
     inkscape:window-height="1104"
     inkscape:window-x="0"
     inkscape:window-y="0"
     inkscape:window-maximized="0" />
  <metadata
     id="metadata7">
    <rdf:RDF>
      <cc:Work
         rdf:about="">
        <dc:format>image/svg+xml</dc:format>
        <dc:type
           rdf:resource="http://purl.org/dc/dcmitype/StillImage" />
        <dc:title></dc:title>
      </cc:Work>
    </rdf:RDF>
  </metadata>
  <g
     inkscape:label="Layer 1"
     inkscape:groupmode="layer"
     id="layer1"
     transform="translate(0,-1022.3622)">
    <path
       sodipodi:type="arc"
       style="fill:url(#radialGradient5780);fill-opacity:1;stroke:none"
       id="path5665"
       sodipodi:cx="16.540178"
       sodipodi:cy="12.834822"
       sodipodi:rx="7.3883929"
       sodipodi:ry="9.6205359"
       d="m 23.928571,12.834822 c 0,5.313275 -3.307896,9.620536 -7.388393,9.620536 -4.080496,0 -7.3883926,-4.307261 -7.3883926,-9.620536 0,-5.3132755 3.3078966,-9.6205361 7.3883926,-9.6205361 4.080497,0 7.388393,4.3072606 7.388393,9.6205361 z"
       transform="matrix(1.265861,0,0,1.162413,-5.602746,1019.4294)" />
    <path
       sodipodi:type="arc"
       style="fill:#d45500;fill-opacity:1;stroke:none"
       id="path5763"
       sodipodi:cx="-4.3526788"
       sodipodi:cy="14.308036"
       sodipodi:rx="2.3883929"
       sodipodi:ry="2.5223215"
       d="m -1.9642859,14.308036 c 0,1.39304 -1.0693199,2.522321 -2.3883929,2.522321 -1.319073,0 -2.3883929,-1.129281 -2.3883929,-2.522321 0,-1.39304 1.0693199,-2.522322 2.3883929,-2.522322 1.319073,0 2.3883929,1.129282 2.3883929,2.522322 z"
       transform="matrix(1.0934579,0,0,1.0884956,17.013935,1016.6317)" />
    <path
       style="fill:url(#radialGradient5788);fill-opacity:1;stroke:none"
       d="m 20.753126,1043.324 c 0,0 2.551197,1.1679 3.270147,2.4441 0.718949,1.2762 0.456332,4.6839 0.456332,4.6839 0,0 0.03862,1.0512 -1.168374,1.0431 -1.206989,-0.01 -1.102996,-0.8929 -1.102996,-0.8929 l -0.08929,-3.029 c 0,0 9.82e-4,-1.0308 -1.337043,-1.0462 -1.338034,-0.015 -1.245513,1.1401 -1.245513,1.1401 l -0.152424,2.9148 c 0,0 0.355347,1.0105 -1.094407,1.0105 -1.449755,0 -1.227022,-0.9637 -1.227022,-0.9637 l -0.0022,-2.8855 c 0,0 -0.06304,-1.2411 -1.234681,-1.2216 -1.171639,0.02 -1.278394,1.2293 -1.278394,1.2293 l -0.133924,2.9018 c 0,0 -0.123206,1.097 -1.349189,1.0366 -1.225984,-0.06 -1.21619,-1.1575 -1.21619,-1.1575 l 0.08929,-3.0357 c 0,0 -0.157593,-1.0126 -1.447062,-1.0367 -1.2263578,-0.023 -1.4384751,1.2153 -1.4384751,1.2153 l -0.1470041,2.9018 c 0,0 0.095746,1.2004 -1.3577775,1.1607 -1.4535235,-0.04 -1.386172,-0.9822 -1.386172,-0.9822 0,0 -0.4167476,-1.1689 0.1763279,-3.8424 0.5930755,-2.6735 3.8695388,-3.5896 3.8695388,-3.5896 l 4.123776,0.6463 6.42277,-0.6453 -4.4e-5,0 z"
       id="path5667"
       sodipodi:nodetypes="czczcczcczcczcczcczcczczcccc" />
    <g
       id="g5690"
       transform="translate(0.53571429,0.53571429)">
      <path
         transform="matrix(1.2625,0,0,1.2528736,-2.1674109,1019.6955)"
         d="m 12.678572,9.4866066 c 0,1.0725174 -0.799492,1.9419644 -1.785714,1.9419644 -0.9862232,0 -1.7857147,-0.869447 -1.7857147,-1.9419644 0,-1.0725173 0.7994915,-1.9419643 1.7857147,-1.9419643 0.986222,0 1.785714,0.869447 1.785714,1.9419643 z"
         sodipodi:ry="1.9419643"
         sodipodi:rx="1.7857143"
         sodipodi:cy="9.4866066"
         sodipodi:cx="10.892858"
         id="path5669"
         style="fill:#ffffff;fill-opacity:1;stroke:none"
         sodipodi:type="arc" />
      <path
         transform="translate(0,1022.3622)"
         d="m 12.767858,9.6205359 c 0,0.7519951 -0.559645,1.3616071 -1.25,1.3616071 -0.690356,0 -1.25,-0.609612 -1.25,-1.3616071 0,-0.7519949 0.559644,-1.3616072 1.25,-1.3616072 0.690355,0 1.25,0.6096123 1.25,1.3616072 z"
         sodipodi:ry="1.3616072"
         sodipodi:rx="1.25"
         sodipodi:cy="9.6205359"
         sodipodi:cx="11.517858"
         id="path5673"
         style="fill:#000000;fill-opacity:1;stroke:none"
         sodipodi:type="arc" />
      <path
         id="path5675"
         d="m 11.406249,1030.9605 c -0.493111,0 -0.892857,0.4276 -0.892857,0.9711 0,0.4495 0.273675,0.8308 0.647322,0.9484 -0.161576,-0.178 -0.267857,-0.4284 -0.267857,-0.7 0,-0.5435 0.399746,-0.9711 0.892857,-0.9711 0.06164,0 0.120449,-0.013 0.178571,0 -0.15511,-0.1434 -0.339772,-0.2484 -0.558036,-0.2484 z"
         style="fill:url(#linearGradient5688);fill-opacity:1;stroke:none" />
    </g>
    <path
       transform="matrix(1.0934579,0,0,1.0884956,22.594292,1016.6317)"
       d="m -1.9642859,14.308036 c 0,1.39304 -1.0693199,2.522321 -2.3883929,2.522321 -1.319073,0 -2.3883929,-1.129281 -2.3883929,-2.522321 0,-1.39304 1.0693199,-2.522322 2.3883929,-2.522322 1.319073,0 2.3883929,1.129282 2.3883929,2.522322 z"
       sodipodi:ry="2.5223215"
       sodipodi:rx="2.3883929"
       sodipodi:cy="14.308036"
       sodipodi:cx="-4.3526788"
       id="path5767"
       style="fill:#d45500;fill-opacity:1;stroke:none"
       sodipodi:type="arc" />
    <g
       id="g5695"
       transform="translate(6.407226,0.47257976)">
      <path
         sodipodi:type="arc"
         style="fill:#ffffff;fill-opacity:1;stroke:none"
         id="path5697"
         sodipodi:cx="10.892858"
         sodipodi:cy="9.4866066"
         sodipodi:rx="1.7857143"
         sodipodi:ry="1.9419643"
         d="m 12.678572,9.4866066 c 0,1.0725174 -0.799492,1.9419644 -1.785714,1.9419644 -0.9862232,0 -1.7857147,-0.869447 -1.7857147,-1.9419644 0,-1.0725173 0.7994915,-1.9419643 1.7857147,-1.9419643 0.986222,0 1.785714,0.869447 1.785714,1.9419643 z"
         transform="matrix(1.2625,0,0,1.2528736,-2.1674109,1019.6955)" />
      <path
         sodipodi:type="arc"
         style="fill:#000000;fill-opacity:1;stroke:none"
         id="path5699"
         sodipodi:cx="11.517858"
         sodipodi:cy="9.6205359"
         sodipodi:rx="1.25"
         sodipodi:ry="1.3616072"
         d="m 12.767858,9.6205359 c 0,0.7519951 -0.559645,1.3616071 -1.25,1.3616071 -0.690356,0 -1.25,-0.609612 -1.25,-1.3616071 0,-0.7519949 0.559644,-1.3616072 1.25,-1.3616072 0.690355,0 1.25,0.6096123 1.25,1.3616072 z"
         transform="translate(0,1022.3622)" />
      <path
         style="fill:url(#linearGradient5703);fill-opacity:1;stroke:none"
         d="m 11.406249,1030.9605 c -0.493111,0 -0.892857,0.4276 -0.892857,0.9711 0,0.4495 0.273675,0.8308 0.647322,0.9484 -0.161576,-0.178 -0.267857,-0.4284 -0.267857,-0.7 0,-0.5435 0.399746,-0.9711 0.892857,-0.9711 0.06164,0 0.120449,-0.013 0.178571,0 -0.15511,-0.1434 -0.339772,-0.2484 -0.558036,-0.2484 z"
         id="path5701" />
    </g>
    <path
       style="opacity:0.48971193;fill:#d45500;fill-opacity:1;stroke:none"
       d="m 21.098214,1025.5542 c 1.211153,1.8853 1.9375,4.2202 1.9375,6.7812 0,6.1762 -4.178408,11.1875 -9.34375,11.1875 -2.178962,0 -4.1912786,-0.9124 -5.7812497,-2.4062 0.594599,0.9322 1.3189644,1.7371 2.1249997,2.4062 0.750749,0.1709 2.419374,0.5051 4.78125,0.5938 3.250079,0.1221 5.9375,-0.7813 5.9375,-0.7813 0,0 0.07911,0.024 0.09375,0.031 2.32461,-2.0355 3.84375,-5.3204 3.84375,-9.0313 0,-3.573 -1.41232,-6.7339 -3.59375,-8.7812 z"
       id="path5720" />
    <path
       style="fill:#d45500;fill-opacity:1;stroke:none"
       d="m 23.482143,1045.2818 c 0.66545,1.3332 0.40625,4.5938 0.40625,4.5938 0,0 0.05074,1.0393 -1.15625,1.0312 -0.28666,0 -0.49853,-0.048 -0.65625,-0.125 0.02733,0.2488 0.188508,0.7425 1.09375,0.75 1.206994,0.01 1.1875,-1.0312 1.1875,-1.0312 0,0 0.250199,-3.4113 -0.46875,-4.6875 -0.10225,-0.1815 -0.242489,-0.3572 -0.40625,-0.5313 z m -13.5625,0.5938 c -1.226357,-0.023 -1.4375,1.2187 -1.4375,1.2187 l -0.15625,2.9063 c 0,0 0.109777,1.1959 -1.34375,1.1562 -0.42879,-0.012 -0.732645,-0.097 -0.9375,-0.2187 0.049191,0.2668 0.284857,0.8137 1.375,0.8437 1.453527,0.04 1.34375,-1.1562 1.34375,-1.1562 l 0.15625,-2.9063 c 0,0 0.211143,-1.2417 1.4375,-1.2187 0.445519,0.01 0.753281,0.1507 0.96875,0.3125 -0.06054,-0.2236 -0.31516,-0.9171 -1.40625,-0.9375 z m 5.3125,0.062 c -1.171639,0.02 -1.25,1.2187 -1.25,1.2187 l -0.15625,2.9063 c 0,0 -0.117767,1.0916 -1.34375,1.0312 -0.293285,-0.014 -0.518606,-0.084 -0.6875,-0.1875 0.09727,0.329 0.335773,0.7739 1.125,0.8125 1.225983,0.06 1.375,-1.0312 1.375,-1.0312 l 0.125,-2.9063 c 0,0 0.109611,-1.1987 1.28125,-1.2187 0.280285,0 0.488537,0.082 0.65625,0.1875 -0.122503,-0.3613 -0.396038,-0.8247 -1.125,-0.8125 z m 4.96875,0 c -1.338034,-0.015 -1.25,1.1562 -1.25,1.1562 l -0.15625,2.9063 c 0,0 0.356004,1 -1.09375,1 -0.345813,0 -0.568786,-0.042 -0.75,-0.125 0.02499,0.283 0.201133,0.75 1.21875,0.75 1.449754,0 1.09375,-1 1.09375,-1 l 0.125,-2.9063 c 0,0 -0.08803,-1.1712 1.25,-1.1562 0.37397,0 0.649722,0.1005 0.84375,0.2187 -0.08088,-0.3028 -0.335132,-0.8328 -1.28125,-0.8437 z"
       id="path5740" />
    <path
       style="fill:none;stroke:#000000;stroke-width:0.3;stroke-linecap:round;stroke-linejoin:round;stroke-miterlimit:4;stroke-opacity:1;stroke-dasharray:none"
       d="m 15.25,1023.13 c -5.165342,0 -9.3437498,5.0113 -9.3437498,11.1875 0,3.7463 1.541302,7.0331 3.90625,9.0625 -0.703992,0.2417 -3.055192,1.2132 -3.5625,3.5 -0.593075,2.6735 -0.1875,3.8438 -0.1875,3.8438 0,0 -0.047273,0.9287 1.40625,0.9687 1.453528,0.04 1.34375,-1.1562 1.34375,-1.1562 l 0.15625,-2.9063 c 0,0 0.211142,-1.2417 1.4374998,-1.2187 1.289469,0.024 1.4375,1.0312 1.4375,1.0312 l -0.09375,3.0313 c 0,0 -0.0072,1.0962 1.21875,1.1562 1.225983,0.06 1.34375,-1.0312 1.34375,-1.0312 l 0.15625,-2.9063 c 0,0 0.109611,-1.1987 1.28125,-1.2187 1.171641,-0.02 1.21875,1.2187 1.21875,1.2187 l 0,2.9063 c 0,0 -0.231005,0.9375 1.21875,0.9375 1.449754,0 1.09375,-1 1.09375,-1 l 0.15625,-2.9063 c 0,0 -0.08803,-1.1712 1.25,-1.1562 1.338025,0.015 1.34375,1.0625 1.34375,1.0625 l 0.09375,3.0312 c 0,0 -0.113239,0.865 1.09375,0.875 1.206994,0.01 1.15625,-1.0312 1.15625,-1.0312 0,0 0.281443,-3.4113 -0.4375,-4.6875 -0.468142,-0.831 -1.684476,-1.603 -2.478337,-2.0415 -0.358423,-0.198 -0.630726,-0.328 -0.709163,-0.3648 2.323704,-2.0346 3.84375,-5.2923 3.84375,-9 0,-6.1762 -4.178408,-11.1875 -9.34375,-11.1875 z"
       id="path5705"
       sodipodi:nodetypes="cscscsccsccsccsccsccsccscsscsc" />
    <path
       style="fill:none;stroke:#000000;stroke-width:0.2;stroke-linecap:round;stroke-linejoin:round;stroke-miterlimit:4;stroke-opacity:1;stroke-dasharray:none"
       d="m 20.825893,1043.2774 c 0,0 -0.753459,0.3478 -1.165983,0.4464 -0.412525,0.099 -1.289374,0.1339 -1.289374,0.1339"
       id="path5714"
       sodipodi:nodetypes="czc" />
    <path
       sodipodi:nodetypes="czc"
       id="path5716"
       d="m 9.8214289,1043.3667 c 0,0 0.7534591,0.3478 1.1659831,0.4464 0.412525,0.099 1.289374,0.1339 1.289374,0.1339"
       style="fill:none;stroke:#000000;stroke-width:0.2;stroke-linecap:round;stroke-linejoin:round;stroke-miterlimit:4;stroke-opacity:1;stroke-dasharray:none" />
    <path
       style="fill:#d45500;stroke:#000000;stroke-width:1px;stroke-linecap:round;stroke-linejoin:round;stroke-opacity:1"
       d="m 9.9107143,1039.2372 1.3839287,-1.9197 1.607143,1.9197 2.098214,-1.8304 1.339286,1.6518 2.053571,-1.7411 1.428571,1.7857"
       id="path5718" />
    <path
       style="opacity:0.51440328;fill:#ffe6d5;fill-opacity:1;stroke:none"
       d="m 14.892857,1023.8309 c -4.524297,0 -8.1874998,4.5027 -8.1874998,10.0625 0,2.2053 0.5526537,4.2478 1.53125,5.9063 -0.5341941,-1.3889 -0.8125,-2.9065 -0.8125,-4.5 0,-5.4124 3.3816358,-9.9951 8.0312498,-11.4375 -0.185086,-0.015 -0.374245,-0.031 -0.5625,-0.031 z"
       id="path5769" />
    <path
       sodipodi:type="arc"
       style="fill:none;stroke:#000000;stroke-width:0.36288872;stroke-linecap:round;stroke-linejoin:round;stroke-miterlimit:4;stroke-opacity:1;stroke-dasharray:none;stroke-dashoffset:0"
       id="path5755"
       sodipodi:cx="11.473214"
       sodipodi:cy="9.2857141"
       sodipodi:rx="2.9464285"
       sodipodi:ry="2.9464285"
       d="m 14.419643,9.2857141 c 0,1.6272679 -1.319161,2.9464289 -2.946429,2.9464289 -1.6272674,0 -2.9464284,-1.319161 -2.9464284,-2.9464289 0,-1.6272675 1.319161,-2.9464285 2.9464284,-2.9464285 1.627268,0 2.946429,1.319161 2.946429,2.9464285 z"
       transform="matrix(1.0984849,0,0,1.1060606,-0.52725931,1021.9578)" />
    <path
       style="fill:none;stroke:#000000;stroke-width:1px;stroke-linecap:butt;stroke-linejoin:miter;stroke-opacity:1"
       d="m 6.2946429,1031.3354 2.5446429,0.2232"
       id="path5757" />
  </g>
</svg>
